<svg xmlns="http://www.w3.org/2000/svg" width="372.804" height="115.892" viewBox="0 0 372.804 115.892"><defs><style>.a,.c{fill:#fff;}.b,.e{fill:#ffb027;}.c{opacity:0.42;}.d{fill:#361441;}.e{font-size:36px;font-family:Montserrat-Bold, Montserrat;font-weight:700;}</style></defs><g transform="translate(-143.05 -387)"><g transform="translate(143.05 387)"><g transform="translate(138.426 20.378)"><path class="a" d="M130.98,486.2h12.087a11.192,11.192,0,0,1,7.653,2.513,8.854,8.854,0,0,1,2.865,7.025,9.083,9.083,0,0,1-2.847,7.164,11.127,11.127,0,0,1-7.671,2.531h-5.14v8.2H130.98Zm10.987,13.383a5.506,5.506,0,0,0,3.277-.863,3.428,3.428,0,0,0,1.2-2.982,3.238,3.238,0,0,0-1.179-2.9,5.921,5.921,0,0,0-3.3-.785H137.92v7.536h4.047Z" transform="translate(-130.98 -485.611)"/><path class="a" d="M201.29,486.2h12.325q4.83,0,7.554,2.435a8.875,8.875,0,0,1,2.726,6.986,9.715,9.715,0,0,1-1.335,5.218,8.13,8.13,0,0,1-3.766,3.22l4.867,9.577h-7.142l-4.356-8.594h-3.926v8.594H201.29ZM212.4,499.192a5.5,5.5,0,0,0,3.22-.806,4,4,0,0,0,.021-5.573,5.71,5.71,0,0,0-3.237-.767h-4.16v7.142H212.4Z" transform="translate(-176.331 -485.611)"/><path class="a" d="M276.082,511.348a13.566,13.566,0,0,1-5.3-5.044,15.253,15.253,0,0,1,0-14.9,13.485,13.485,0,0,1,5.3-5.062,16.45,16.45,0,0,1,14.991,0,13.384,13.384,0,0,1,5.279,5.062,15.376,15.376,0,0,1,0,14.9,13.414,13.414,0,0,1-5.279,5.044,16.451,16.451,0,0,1-14.991,0Zm11.324-5.651a7.018,7.018,0,0,0,2.748-2.709,8.871,8.871,0,0,0,.018-8.221,7.063,7.063,0,0,0-2.726-2.708,7.746,7.746,0,0,0-3.844-.962,7.851,7.851,0,0,0-3.887.962,7.063,7.063,0,0,0-2.726,2.708,8.1,8.1,0,0,0-1,4.1,8.222,8.222,0,0,0,1,4.121,6.837,6.837,0,0,0,2.748,2.709,8.007,8.007,0,0,0,3.866.941A7.813,7.813,0,0,0,287.406,505.7Z" transform="translate(-219.902 -484.54)"/><path class="a" d="M359.5,486.2h19.467v5.847h-12.52v5.14h9.144v5.456h-9.144v10.99H359.5Z" transform="translate(-278.379 -485.611)"/><path class="a" d="M419.87,486.2h6.947v27.433H419.87Z" transform="translate(-317.319 -485.611)"/><path class="a" d="M449.39,486.2h6.947v21.587h11.931v5.847H449.39Z" transform="translate(-336.359 -485.611)"/><path class="a" d="M506.434,486.2H525.9v5.847H513.377v5.14h9.144v5.456h-9.144v5.14H525.9v5.847H506.43V486.2Z" transform="translate(-373.151 -485.611)"/><path class="a" d="M569,486.2H582.9a9.309,9.309,0,0,1,6.258,1.963,6.984,6.984,0,0,1,2.3,5.612,6.831,6.831,0,0,1-.785,3.22,5.9,5.9,0,0,1-2.236,2.354,5.912,5.912,0,0,1,2.943,2.258,6.992,6.992,0,0,1,.941,3.827,8.023,8.023,0,0,1-1.179,4.377,7.742,7.742,0,0,1-3.159,2.847,9.827,9.827,0,0,1-4.416.98H569V486.2Zm12.364,10.873q3.062,0,3.06-2.865a2.673,2.673,0,0,0-.785-2.219,3.9,3.9,0,0,0-2.4-.607h-5.3v5.69Zm.429,11.381a4.282,4.282,0,0,0,2.63-.667,2.807,2.807,0,0,0,.863-2.354,3.053,3.053,0,0,0-.9-2.453,4.174,4.174,0,0,0-2.748-.767h-5.69v6.241Z" transform="translate(-413.51 -485.611)"/><path class="a" d="M645.008,510.907a12.226,12.226,0,0,1-3.138-8.772V486.2h6.947v16.013a5.5,5.5,0,0,0,1.473,4.16,5.625,5.625,0,0,0,4.061,1.413,5,5,0,0,0,5.5-5.573V486.2h6.947v15.935a12.272,12.272,0,0,1-3.12,8.793q-3.12,3.3-9.322,3.3T645.008,510.907Z" transform="translate(-460.512 -485.611)"/><path class="a" d="M721.464,486.2h9.851a17.8,17.8,0,0,1,7.888,1.647,12.032,12.032,0,0,1,5.2,4.728,13.861,13.861,0,0,1,1.825,7.2q0,6.832-4,10.341t-11.107,3.514H721.46V486.2Zm10.245,21.587a6.911,6.911,0,0,0,5.474-2.158,8.529,8.529,0,0,0,1.9-5.847,8.135,8.135,0,0,0-1.9-5.552,6.6,6.6,0,0,0-5.24-2.18h-3.532v15.736Z" transform="translate(-511.849 -485.611)"/></g><path class="b" d="M352.1,72.73h0a56.071,56.071,0,0,1,56.07,56.07h0a56.071,56.071,0,0,1-56.07,56.07h0a56.071,56.071,0,0,1-56.07-56.07h0A56.071,56.071,0,0,1,352.1,72.73Z" transform="translate(-296.03 -72.73)"/><circle class="c" cx="43.986" cy="43.986" r="43.986" transform="translate(12.084 12.797)"/><circle class="c" cx="35.158" cy="35.158" r="35.158" transform="translate(20.912 21.626)"/><circle class="c" cx="27.494" cy="27.494" r="27.494" transform="translate(28.576 29.29)"/><circle class="a" cx="10.298" cy="10.298" r="10.298" transform="translate(25.875 43.571)"/><circle class="a" cx="10.298" cy="10.298" r="10.298" transform="translate(65.669 43.571)"/><path class="d" d="M436.9,263.11h-.057a9.468,9.468,0,0,1-9.343-9.336l2.812-.032a6.641,6.641,0,0,0,6.549,6.557h.039a6.648,6.648,0,0,0,6.585-6.638H446.3a9.47,9.47,0,0,1-9.4,9.453Z" transform="translate(-380.83 -189.433)"/><circle class="d" cx="8.406" cy="8.406" r="8.406" transform="translate(27.767 45.463)"/><circle class="a" cx="2.062" cy="2.062" r="2.062" transform="translate(35.2 46.833)"/><circle class="a" cx="1.455" cy="1.455" r="1.455" transform="translate(39.929 51.561)"/><circle class="d" cx="8.406" cy="8.406" r="8.406" transform="translate(67.561 45.463)"/><circle class="a" cx="2.062" cy="2.062" r="2.062" transform="translate(74.994 46.833)"/><circle class="a" cx="1.455" cy="1.455" r="1.455" transform="translate(79.722 51.561)"/><circle class="a" cx="22.417" cy="22.417" r="22.417" transform="translate(71.579 71.057)"/><path class="d" d="M530.788,289.48a16.53,16.53,0,1,0,16.532,16.532,16.529,16.529,0,0,0-16.532-16.532Zm-13.773,16.532a13.775,13.775,0,1,1,25.96,6.407l-1.9-1.9a4.414,4.414,0,0,1-1.282-3.461,8.633,8.633,0,0,0-7.923-9.286c-.227-.018-.454-.028-.685-.028a8.8,8.8,0,0,0-2.467.355l5.193,5.193c.564,2.6-3.209,6.418-5.843,5.843l-5.19-5.193a8.638,8.638,0,0,0,8.271,11.1c.227,0,.454-.011.682-.028a4.409,4.409,0,0,1,3.461,1.281l1.9,1.9a13.747,13.747,0,0,1-20.174-12.18Z" transform="translate(-436.792 -212.537)"/></g><text class="e" transform="translate(280.411 478.959)"><tspan x="0" y="0">agency</tspan></text></g></svg>