<svg xmlns="http://www.w3.org/2000/svg" width="61.333" height="46" viewBox="0 0 61.333 46"><defs><style>.a{fill:#ffb027;}</style></defs><path class="a" d="M49.833,3a11.5,11.5,0,1,0,11.5,11.5A11.5,11.5,0,0,0,49.833,3ZM48.556,20.889V15.778H43.444V13.222h5.111V8.111L56.222,14.5ZM39.611,41.333a3.833,3.833,0,1,1-3.833,3.833A3.833,3.833,0,0,1,39.611,41.333ZM0,3,1.9,8.111h4.93l8.878,30.667H49.539l3.34-7.958A16.559,16.559,0,0,1,33.685,10.667H18.369l6.5,23H19.491L10.723,3ZM23,45.167a3.833,3.833,0,1,0,3.833-3.833A3.833,3.833,0,0,0,23,45.167Z" transform="translate(0 -3)"/></svg>